<mxfile host="app.diagrams.net" modified="2024-01-28T14:29:15.372Z" agent="Mozilla/5.0 (X11; Ubuntu; Linux x86_64; rv:122.0) Gecko/20100101 Firefox/122.0" etag="tzoqRrJxPlr0laBdtChX" version="23.0.2" type="device">
  <diagram id="Xx9E0T2Yht3KkegQIIjF" name="Page-1">
    <mxGraphModel dx="1920" dy="1153" grid="1" gridSize="10" guides="1" tooltips="1" connect="1" arrows="1" fold="1" page="1" pageScale="1" pageWidth="827" pageHeight="1169" math="0" shadow="0">
      <root>
        <mxCell id="0" />
        <mxCell id="1" parent="0" />
        <mxCell id="ATFC-mPNL5_b1RBavr3u-8" value="&lt;span style=&quot;font-size: 17px&quot;&gt;&lt;b&gt;Simulated robot at Gazebo&lt;/b&gt;&lt;/span&gt;" style="text;html=1;strokeColor=none;fillColor=none;align=center;verticalAlign=middle;whiteSpace=wrap;rounded=0;" parent="1" vertex="1">
          <mxGeometry x="1310.25" y="1120" width="225.5" height="20" as="geometry" />
        </mxCell>
        <mxCell id="5PvRvrnBs6BkQdJpTkBt-158" style="edgeStyle=orthogonalEdgeStyle;curved=0;rounded=0;orthogonalLoop=1;jettySize=auto;html=1;exitX=0;exitY=0.5;exitDx=0;exitDy=0;strokeWidth=2;fillColor=#0050ef;strokeColor=#001DBC;entryX=1;entryY=0.5;entryDx=0;entryDy=0;" parent="1" source="5PvRvrnBs6BkQdJpTkBt-2" target="5PvRvrnBs6BkQdJpTkBt-61" edge="1">
          <mxGeometry relative="1" as="geometry">
            <mxPoint x="223.75" y="360" as="targetPoint" />
            <Array as="points">
              <mxPoint x="215" y="415" />
              <mxPoint x="215" y="415" />
            </Array>
          </mxGeometry>
        </mxCell>
        <mxCell id="5PvRvrnBs6BkQdJpTkBt-2" value="" style="ellipse;whiteSpace=wrap;html=1;strokeWidth=1;" parent="1" vertex="1">
          <mxGeometry x="431.5" y="390" width="150" height="50" as="geometry" />
        </mxCell>
        <mxCell id="5PvRvrnBs6BkQdJpTkBt-3" value="/scan" style="text;html=1;strokeColor=none;fillColor=none;align=center;verticalAlign=middle;whiteSpace=wrap;rounded=0;" parent="1" vertex="1">
          <mxGeometry x="464" y="405" width="85" height="20" as="geometry" />
        </mxCell>
        <mxCell id="5PvRvrnBs6BkQdJpTkBt-159" style="edgeStyle=orthogonalEdgeStyle;curved=0;rounded=0;orthogonalLoop=1;jettySize=auto;html=1;strokeWidth=2;fillColor=#e51400;strokeColor=#B20000;exitX=0.5;exitY=1;exitDx=0;exitDy=0;entryX=0.5;entryY=1;entryDx=0;entryDy=0;" parent="1" source="WkDUcd401ZdPSmuAqSBH-52" target="WkDUcd401ZdPSmuAqSBH-31" edge="1">
          <mxGeometry relative="1" as="geometry">
            <Array as="points">
              <mxPoint x="1423" y="380" />
              <mxPoint x="530" y="380" />
            </Array>
            <mxPoint x="1510" y="425" as="sourcePoint" />
            <mxPoint x="1160" y="425" as="targetPoint" />
          </mxGeometry>
        </mxCell>
        <mxCell id="5PvRvrnBs6BkQdJpTkBt-61" value="&lt;div style=&quot;text-align: left&quot;&gt;&lt;span&gt;&lt;font face=&quot;calibri, calibri_embeddedfont, calibri_msfontservice, sans-serif&quot;&gt;/scan&lt;/font&gt;&lt;/span&gt;&lt;/div&gt;" style="rounded=0;whiteSpace=wrap;html=1;" parent="1" vertex="1">
          <mxGeometry x="115" y="405" width="70" height="20" as="geometry" />
        </mxCell>
        <mxCell id="5PvRvrnBs6BkQdJpTkBt-62" value="sensor_msgs/msg/LaserScan" style="text;html=1;strokeColor=none;fillColor=none;align=center;verticalAlign=middle;whiteSpace=wrap;rounded=0;fontColor=#FF0080;" parent="1" vertex="1">
          <mxGeometry x="67" y="385" width="166" height="20" as="geometry" />
        </mxCell>
        <mxCell id="5PvRvrnBs6BkQdJpTkBt-170" style="edgeStyle=orthogonalEdgeStyle;curved=1;rounded=0;orthogonalLoop=1;jettySize=auto;html=1;exitX=1;exitY=0.75;exitDx=0;exitDy=0;entryX=1.013;entryY=0.344;entryDx=0;entryDy=0;entryPerimeter=0;strokeWidth=2;fillColor=#e51400;strokeColor=#B20000;" parent="1" source="5PvRvrnBs6BkQdJpTkBt-167" edge="1">
          <mxGeometry relative="1" as="geometry">
            <Array as="points">
              <mxPoint x="940" y="820" />
              <mxPoint x="940" y="883" />
            </Array>
            <mxPoint x="890.04" y="882.98" as="targetPoint" />
          </mxGeometry>
        </mxCell>
        <mxCell id="WkDUcd401ZdPSmuAqSBH-6" value="/differential_drive_controller" style="ellipse;whiteSpace=wrap;html=1;strokeWidth=1;" vertex="1" parent="1">
          <mxGeometry x="431.5" y="540" width="150" height="50" as="geometry" />
        </mxCell>
        <mxCell id="WkDUcd401ZdPSmuAqSBH-11" value="/odom" style="rounded=0;whiteSpace=wrap;html=1;" vertex="1" parent="1">
          <mxGeometry x="129" y="600" width="60" height="30" as="geometry" />
        </mxCell>
        <mxCell id="WkDUcd401ZdPSmuAqSBH-13" value="nav_msgs/msg/Odometry" style="text;html=1;strokeColor=none;fillColor=none;align=center;verticalAlign=middle;whiteSpace=wrap;rounded=0;fontColor=#FF0080;" vertex="1" parent="1">
          <mxGeometry x="85" y="580" width="166" height="20" as="geometry" />
        </mxCell>
        <mxCell id="WkDUcd401ZdPSmuAqSBH-14" value="/tf" style="rounded=0;whiteSpace=wrap;html=1;" vertex="1" parent="1">
          <mxGeometry x="128" y="540" width="50" height="20" as="geometry" />
        </mxCell>
        <mxCell id="WkDUcd401ZdPSmuAqSBH-16" value="tf2_msgs/msg/TFMessage" style="text;html=1;strokeColor=none;fillColor=none;align=center;verticalAlign=middle;whiteSpace=wrap;rounded=0;fontColor=#FF0080;" vertex="1" parent="1">
          <mxGeometry x="88" y="520" width="166" height="20" as="geometry" />
        </mxCell>
        <mxCell id="WkDUcd401ZdPSmuAqSBH-23" style="edgeStyle=orthogonalEdgeStyle;curved=0;rounded=0;orthogonalLoop=1;jettySize=auto;html=1;strokeWidth=2;fillColor=#0050ef;strokeColor=#001DBC;entryX=0;entryY=0.5;entryDx=0;entryDy=0;exitX=1;exitY=1;exitDx=0;exitDy=0;" edge="1" parent="1" source="WkDUcd401ZdPSmuAqSBH-31" target="WkDUcd401ZdPSmuAqSBH-54">
          <mxGeometry relative="1" as="geometry">
            <mxPoint x="844" y="289.23" as="targetPoint" />
            <Array as="points">
              <mxPoint x="584" y="289" />
              <mxPoint x="810" y="289" />
              <mxPoint x="810" y="810" />
            </Array>
            <mxPoint x="570" y="280" as="sourcePoint" />
          </mxGeometry>
        </mxCell>
        <mxCell id="WkDUcd401ZdPSmuAqSBH-31" value="/camera_controller" style="ellipse;whiteSpace=wrap;html=1;strokeWidth=1;" vertex="1" parent="1">
          <mxGeometry x="455" y="155" width="150" height="50" as="geometry" />
        </mxCell>
        <mxCell id="WkDUcd401ZdPSmuAqSBH-33" value="/camera/camera_info" style="rounded=0;whiteSpace=wrap;html=1;" vertex="1" parent="1">
          <mxGeometry x="71" y="170" width="122" height="20" as="geometry" />
        </mxCell>
        <mxCell id="WkDUcd401ZdPSmuAqSBH-34" value="sensor_msgs/msg/CameraInfo" style="text;html=1;strokeColor=none;fillColor=none;align=center;verticalAlign=middle;whiteSpace=wrap;rounded=0;fontColor=#FF0080;" vertex="1" parent="1">
          <mxGeometry x="57" y="150" width="166" height="20" as="geometry" />
        </mxCell>
        <mxCell id="WkDUcd401ZdPSmuAqSBH-35" value="/camera/depth/camera_info" style="rounded=0;whiteSpace=wrap;html=1;" vertex="1" parent="1">
          <mxGeometry x="49" y="240" width="162" height="20" as="geometry" />
        </mxCell>
        <mxCell id="WkDUcd401ZdPSmuAqSBH-36" value="sensor_msgs/msg/CameraInfo" style="text;html=1;strokeColor=none;fillColor=none;align=center;verticalAlign=middle;whiteSpace=wrap;rounded=0;fontColor=#FF0080;" vertex="1" parent="1">
          <mxGeometry x="45" y="220" width="166" height="20" as="geometry" />
        </mxCell>
        <mxCell id="WkDUcd401ZdPSmuAqSBH-37" value="/camera/depth/image_raw" style="rounded=0;whiteSpace=wrap;html=1;" vertex="1" parent="1">
          <mxGeometry x="57" y="310" width="142" height="20" as="geometry" />
        </mxCell>
        <mxCell id="WkDUcd401ZdPSmuAqSBH-38" value="sensor_msgs/msg/Image" style="text;html=1;strokeColor=none;fillColor=none;align=center;verticalAlign=middle;whiteSpace=wrap;rounded=0;fontColor=#FF0080;" vertex="1" parent="1">
          <mxGeometry x="45" y="290" width="166" height="20" as="geometry" />
        </mxCell>
        <mxCell id="WkDUcd401ZdPSmuAqSBH-39" value="/camera/image_raw" style="rounded=0;whiteSpace=wrap;html=1;" vertex="1" parent="1">
          <mxGeometry x="71" y="110" width="122" height="20" as="geometry" />
        </mxCell>
        <mxCell id="WkDUcd401ZdPSmuAqSBH-40" value="sensor_msgs/msg/Image" style="text;html=1;strokeColor=none;fillColor=none;align=center;verticalAlign=middle;whiteSpace=wrap;rounded=0;fontColor=#FF0080;" vertex="1" parent="1">
          <mxGeometry x="49" y="90" width="166" height="20" as="geometry" />
        </mxCell>
        <mxCell id="WkDUcd401ZdPSmuAqSBH-41" value="/camera/points" style="rounded=0;whiteSpace=wrap;html=1;" vertex="1" parent="1">
          <mxGeometry x="88" y="40" width="92" height="20" as="geometry" />
        </mxCell>
        <mxCell id="WkDUcd401ZdPSmuAqSBH-42" value="sensor_msgs/msg/PointCloud2" style="text;html=1;strokeColor=none;fillColor=none;align=center;verticalAlign=middle;whiteSpace=wrap;rounded=0;fontColor=#FF0080;" vertex="1" parent="1">
          <mxGeometry x="40.000000000000114" y="20" width="200" height="20" as="geometry" />
        </mxCell>
        <mxCell id="WkDUcd401ZdPSmuAqSBH-49" value="/cmd_vel" style="rounded=0;whiteSpace=wrap;html=1;" vertex="1" parent="1">
          <mxGeometry x="613" y="670" width="70" height="20" as="geometry" />
        </mxCell>
        <mxCell id="WkDUcd401ZdPSmuAqSBH-50" value="geometry_msgs/msg/Twist" style="text;html=1;strokeColor=none;fillColor=none;align=center;verticalAlign=middle;whiteSpace=wrap;rounded=0;fontColor=#FF0080;" vertex="1" parent="1">
          <mxGeometry x="565" y="650" width="166" height="20" as="geometry" />
        </mxCell>
        <mxCell id="WkDUcd401ZdPSmuAqSBH-51" style="edgeStyle=orthogonalEdgeStyle;curved=0;rounded=0;orthogonalLoop=1;jettySize=auto;html=1;strokeWidth=2;fillColor=#e51400;strokeColor=#B20000;entryX=0.5;entryY=1;entryDx=0;entryDy=0;exitX=0;exitY=0.5;exitDx=0;exitDy=0;" edge="1" parent="1" source="WkDUcd401ZdPSmuAqSBH-49" target="WkDUcd401ZdPSmuAqSBH-6">
          <mxGeometry relative="1" as="geometry">
            <Array as="points">
              <mxPoint x="507" y="680" />
            </Array>
            <mxPoint x="595" y="700" as="sourcePoint" />
            <mxPoint x="505" y="620" as="targetPoint" />
          </mxGeometry>
        </mxCell>
        <mxCell id="WkDUcd401ZdPSmuAqSBH-52" value="/clock" style="rounded=0;whiteSpace=wrap;html=1;" vertex="1" parent="1">
          <mxGeometry x="1388" y="320" width="70" height="20" as="geometry" />
        </mxCell>
        <mxCell id="WkDUcd401ZdPSmuAqSBH-53" value="rosgraph_msgs/msg/Clock" style="text;html=1;strokeColor=none;fillColor=none;align=center;verticalAlign=middle;whiteSpace=wrap;rounded=0;fontColor=#FF0080;" vertex="1" parent="1">
          <mxGeometry x="1340" y="300" width="166" height="20" as="geometry" />
        </mxCell>
        <mxCell id="WkDUcd401ZdPSmuAqSBH-54" value="/parameter_events" style="rounded=0;whiteSpace=wrap;html=1;" vertex="1" parent="1">
          <mxGeometry x="938" y="800" width="122" height="20" as="geometry" />
        </mxCell>
        <mxCell id="WkDUcd401ZdPSmuAqSBH-55" value="rcl_interfaces/msg/ParameterEvent" style="text;html=1;strokeColor=none;fillColor=none;align=center;verticalAlign=middle;whiteSpace=wrap;rounded=0;fontColor=#FF0080;" vertex="1" parent="1">
          <mxGeometry x="908" y="780" width="210" height="20" as="geometry" />
        </mxCell>
        <mxCell id="WkDUcd401ZdPSmuAqSBH-66" style="edgeStyle=orthogonalEdgeStyle;curved=0;rounded=0;orthogonalLoop=1;jettySize=auto;html=1;strokeWidth=2;fillColor=#0050ef;strokeColor=#001DBC;entryX=1;entryY=0.5;entryDx=0;entryDy=0;exitX=0;exitY=0.5;exitDx=0;exitDy=0;" edge="1" parent="1" source="WkDUcd401ZdPSmuAqSBH-31" target="WkDUcd401ZdPSmuAqSBH-39">
          <mxGeometry relative="1" as="geometry">
            <mxPoint x="224.0000000000001" y="119.5" as="targetPoint" />
            <Array as="points">
              <mxPoint x="284" y="180" />
              <mxPoint x="284" y="120" />
            </Array>
            <mxPoint x="435" y="150" as="sourcePoint" />
          </mxGeometry>
        </mxCell>
        <mxCell id="WkDUcd401ZdPSmuAqSBH-67" style="edgeStyle=orthogonalEdgeStyle;curved=0;rounded=0;orthogonalLoop=1;jettySize=auto;html=1;strokeWidth=2;fillColor=#0050ef;strokeColor=#001DBC;exitX=0;exitY=0.5;exitDx=0;exitDy=0;entryX=1;entryY=0.5;entryDx=0;entryDy=0;" edge="1" parent="1" source="WkDUcd401ZdPSmuAqSBH-31" target="WkDUcd401ZdPSmuAqSBH-33">
          <mxGeometry relative="1" as="geometry">
            <mxPoint x="225" y="180" as="targetPoint" />
            <Array as="points">
              <mxPoint x="255" y="180" />
              <mxPoint x="255" y="180" />
            </Array>
            <mxPoint x="415" y="180" as="sourcePoint" />
          </mxGeometry>
        </mxCell>
        <mxCell id="WkDUcd401ZdPSmuAqSBH-68" style="edgeStyle=orthogonalEdgeStyle;curved=0;rounded=0;orthogonalLoop=1;jettySize=auto;html=1;strokeWidth=2;fillColor=#0050ef;strokeColor=#001DBC;entryX=1;entryY=0.5;entryDx=0;entryDy=0;exitX=0;exitY=0.5;exitDx=0;exitDy=0;" edge="1" parent="1" source="WkDUcd401ZdPSmuAqSBH-31" target="WkDUcd401ZdPSmuAqSBH-35">
          <mxGeometry relative="1" as="geometry">
            <mxPoint x="225" y="250" as="targetPoint" />
            <Array as="points">
              <mxPoint x="275" y="180" />
              <mxPoint x="275" y="250" />
            </Array>
            <mxPoint x="525.0000000000001" y="249.5" as="sourcePoint" />
          </mxGeometry>
        </mxCell>
        <mxCell id="WkDUcd401ZdPSmuAqSBH-69" style="edgeStyle=orthogonalEdgeStyle;curved=0;rounded=0;orthogonalLoop=1;jettySize=auto;html=1;strokeWidth=2;fillColor=#0050ef;strokeColor=#001DBC;entryX=1;entryY=0.5;entryDx=0;entryDy=0;exitX=0;exitY=0.5;exitDx=0;exitDy=0;" edge="1" parent="1" source="WkDUcd401ZdPSmuAqSBH-31" target="WkDUcd401ZdPSmuAqSBH-37">
          <mxGeometry relative="1" as="geometry">
            <mxPoint x="215.0000000000001" y="319.5" as="targetPoint" />
            <Array as="points">
              <mxPoint x="275" y="180" />
              <mxPoint x="275" y="320" />
            </Array>
            <mxPoint x="435" y="200" as="sourcePoint" />
          </mxGeometry>
        </mxCell>
        <mxCell id="WkDUcd401ZdPSmuAqSBH-70" style="edgeStyle=orthogonalEdgeStyle;curved=0;rounded=0;orthogonalLoop=1;jettySize=auto;html=1;strokeWidth=2;fillColor=#0050ef;strokeColor=#001DBC;entryX=1;entryY=0.5;entryDx=0;entryDy=0;exitX=0;exitY=0.5;exitDx=0;exitDy=0;" edge="1" parent="1" source="WkDUcd401ZdPSmuAqSBH-31" target="WkDUcd401ZdPSmuAqSBH-41">
          <mxGeometry relative="1" as="geometry">
            <mxPoint x="239.0000000000001" y="49.5" as="targetPoint" />
            <Array as="points">
              <mxPoint x="299" y="180" />
              <mxPoint x="299" y="50" />
            </Array>
            <mxPoint x="525" y="110" as="sourcePoint" />
          </mxGeometry>
        </mxCell>
        <mxCell id="WkDUcd401ZdPSmuAqSBH-71" style="edgeStyle=orthogonalEdgeStyle;curved=0;rounded=0;orthogonalLoop=1;jettySize=auto;html=1;strokeWidth=2;fillColor=#0050ef;strokeColor=#001DBC;entryX=1;entryY=0.5;entryDx=0;entryDy=0;exitX=0;exitY=0.5;exitDx=0;exitDy=0;" edge="1" parent="1" source="WkDUcd401ZdPSmuAqSBH-6" target="WkDUcd401ZdPSmuAqSBH-14">
          <mxGeometry relative="1" as="geometry">
            <mxPoint x="178" y="549.41" as="targetPoint" />
            <Array as="points">
              <mxPoint x="335" y="565" />
              <mxPoint x="335" y="549" />
              <mxPoint x="178" y="549" />
            </Array>
            <mxPoint x="488" y="549.41" as="sourcePoint" />
          </mxGeometry>
        </mxCell>
        <mxCell id="WkDUcd401ZdPSmuAqSBH-72" style="edgeStyle=orthogonalEdgeStyle;curved=0;rounded=0;orthogonalLoop=1;jettySize=auto;html=1;strokeWidth=2;fillColor=#0050ef;strokeColor=#001DBC;entryX=1;entryY=0.5;entryDx=0;entryDy=0;exitX=0;exitY=0.5;exitDx=0;exitDy=0;" edge="1" parent="1" source="WkDUcd401ZdPSmuAqSBH-6" target="WkDUcd401ZdPSmuAqSBH-11">
          <mxGeometry relative="1" as="geometry">
            <mxPoint x="193" y="614.8599999999999" as="targetPoint" />
            <Array as="points" />
            <mxPoint x="503" y="614.8599999999999" as="sourcePoint" />
          </mxGeometry>
        </mxCell>
        <mxCell id="WkDUcd401ZdPSmuAqSBH-73" value="/joint_state_publisher" style="ellipse;whiteSpace=wrap;html=1;strokeWidth=1;" vertex="1" parent="1">
          <mxGeometry x="475" y="720" width="150" height="50" as="geometry" />
        </mxCell>
        <mxCell id="WkDUcd401ZdPSmuAqSBH-74" value="/joint_states" style="rounded=0;whiteSpace=wrap;html=1;" vertex="1" parent="1">
          <mxGeometry x="117.5" y="730" width="101" height="30" as="geometry" />
        </mxCell>
        <mxCell id="WkDUcd401ZdPSmuAqSBH-75" value="sensor_msgs/msg/JointState&lt;br&gt;" style="text;html=1;strokeColor=none;fillColor=none;align=center;verticalAlign=middle;whiteSpace=wrap;rounded=0;fontColor=#FF0080;" vertex="1" parent="1">
          <mxGeometry x="88" y="710" width="177" height="20" as="geometry" />
        </mxCell>
        <mxCell id="WkDUcd401ZdPSmuAqSBH-76" value="/robot_description" style="rounded=0;whiteSpace=wrap;html=1;" vertex="1" parent="1">
          <mxGeometry x="600.5" y="810" width="106" height="30" as="geometry" />
        </mxCell>
        <mxCell id="WkDUcd401ZdPSmuAqSBH-77" value="std_msgs/msg/String" style="text;html=1;strokeColor=none;fillColor=none;align=center;verticalAlign=middle;whiteSpace=wrap;rounded=0;fontColor=#FF0080;" vertex="1" parent="1">
          <mxGeometry x="565" y="790" width="177" height="20" as="geometry" />
        </mxCell>
        <mxCell id="WkDUcd401ZdPSmuAqSBH-78" style="edgeStyle=orthogonalEdgeStyle;curved=0;rounded=0;orthogonalLoop=1;jettySize=auto;html=1;strokeWidth=2;fillColor=#e51400;strokeColor=#B20000;entryX=0.5;entryY=1;entryDx=0;entryDy=0;exitX=0;exitY=0.5;exitDx=0;exitDy=0;" edge="1" parent="1" source="WkDUcd401ZdPSmuAqSBH-76" target="WkDUcd401ZdPSmuAqSBH-73">
          <mxGeometry relative="1" as="geometry">
            <Array as="points">
              <mxPoint x="550" y="825" />
            </Array>
            <mxPoint x="859" y="890" as="sourcePoint" />
            <mxPoint x="509" y="890" as="targetPoint" />
          </mxGeometry>
        </mxCell>
        <mxCell id="WkDUcd401ZdPSmuAqSBH-79" style="edgeStyle=orthogonalEdgeStyle;curved=0;rounded=0;orthogonalLoop=1;jettySize=auto;html=1;strokeWidth=2;fillColor=#0050ef;strokeColor=#001DBC;entryX=1;entryY=0.5;entryDx=0;entryDy=0;exitX=0;exitY=0.5;exitDx=0;exitDy=0;" edge="1" parent="1" source="WkDUcd401ZdPSmuAqSBH-73" target="WkDUcd401ZdPSmuAqSBH-74">
          <mxGeometry relative="1" as="geometry">
            <mxPoint x="239" y="750" as="targetPoint" />
            <Array as="points">
              <mxPoint x="345" y="745" />
              <mxPoint x="345" y="745" />
            </Array>
            <mxPoint x="549" y="750" as="sourcePoint" />
          </mxGeometry>
        </mxCell>
        <mxCell id="WkDUcd401ZdPSmuAqSBH-80" value="/robot_state_publisher" style="ellipse;whiteSpace=wrap;html=1;strokeWidth=1;" vertex="1" parent="1">
          <mxGeometry x="475" y="900" width="150" height="50" as="geometry" />
        </mxCell>
        <mxCell id="WkDUcd401ZdPSmuAqSBH-81" style="edgeStyle=orthogonalEdgeStyle;curved=0;rounded=0;orthogonalLoop=1;jettySize=auto;html=1;strokeWidth=2;fillColor=#e51400;strokeColor=#B20000;entryX=0.5;entryY=0;entryDx=0;entryDy=0;exitX=0.5;exitY=1;exitDx=0;exitDy=0;" edge="1" parent="1" source="WkDUcd401ZdPSmuAqSBH-74" target="WkDUcd401ZdPSmuAqSBH-80">
          <mxGeometry relative="1" as="geometry">
            <Array as="points">
              <mxPoint x="168" y="880" />
              <mxPoint x="550" y="880" />
            </Array>
            <mxPoint x="295" y="810" as="sourcePoint" />
            <mxPoint x="544.12" y="880" as="targetPoint" />
          </mxGeometry>
        </mxCell>
        <mxCell id="WkDUcd401ZdPSmuAqSBH-82" value="/tf" style="rounded=0;whiteSpace=wrap;html=1;" vertex="1" parent="1">
          <mxGeometry x="115" y="915" width="41" height="20" as="geometry" />
        </mxCell>
        <mxCell id="WkDUcd401ZdPSmuAqSBH-83" value="/tf_static" style="rounded=0;whiteSpace=wrap;html=1;" vertex="1" parent="1">
          <mxGeometry x="106" y="980" width="57" height="31" as="geometry" />
        </mxCell>
        <mxCell id="WkDUcd401ZdPSmuAqSBH-84" value="tf2_msgs/msg/TFMessage" style="text;html=1;strokeColor=none;fillColor=none;align=center;verticalAlign=middle;whiteSpace=wrap;rounded=0;fontColor=#FF0080;" vertex="1" parent="1">
          <mxGeometry x="51.5" y="895" width="177" height="20" as="geometry" />
        </mxCell>
        <mxCell id="WkDUcd401ZdPSmuAqSBH-86" value="tf2_msgs/msg/TFMessage" style="text;html=1;strokeColor=none;fillColor=none;align=center;verticalAlign=middle;whiteSpace=wrap;rounded=0;fontColor=#FF0080;" vertex="1" parent="1">
          <mxGeometry x="56" y="960" width="177" height="20" as="geometry" />
        </mxCell>
        <mxCell id="WkDUcd401ZdPSmuAqSBH-87" style="edgeStyle=orthogonalEdgeStyle;curved=0;rounded=0;orthogonalLoop=1;jettySize=auto;html=1;strokeWidth=2;fillColor=#0050ef;strokeColor=#001DBC;entryX=1;entryY=0.5;entryDx=0;entryDy=0;exitX=0;exitY=0.5;exitDx=0;exitDy=0;" edge="1" parent="1" source="WkDUcd401ZdPSmuAqSBH-80" target="WkDUcd401ZdPSmuAqSBH-82">
          <mxGeometry relative="1" as="geometry">
            <mxPoint x="165" y="924.76" as="targetPoint" />
            <Array as="points" />
            <mxPoint x="475" y="924.76" as="sourcePoint" />
          </mxGeometry>
        </mxCell>
        <mxCell id="WkDUcd401ZdPSmuAqSBH-88" style="edgeStyle=orthogonalEdgeStyle;curved=0;rounded=0;orthogonalLoop=1;jettySize=auto;html=1;strokeWidth=2;fillColor=#0050ef;strokeColor=#001DBC;entryX=0.5;entryY=1;entryDx=0;entryDy=0;exitX=0;exitY=0;exitDx=0;exitDy=0;" edge="1" parent="1" source="WkDUcd401ZdPSmuAqSBH-80" target="WkDUcd401ZdPSmuAqSBH-76">
          <mxGeometry relative="1" as="geometry">
            <mxPoint x="536.12" y="1000" as="targetPoint" />
            <Array as="points">
              <mxPoint x="497" y="860" />
              <mxPoint x="653" y="860" />
            </Array>
            <mxPoint x="590" y="880" as="sourcePoint" />
          </mxGeometry>
        </mxCell>
        <mxCell id="WkDUcd401ZdPSmuAqSBH-89" style="edgeStyle=orthogonalEdgeStyle;curved=0;rounded=0;orthogonalLoop=1;jettySize=auto;html=1;strokeWidth=2;fillColor=#0050ef;strokeColor=#001DBC;entryX=1;entryY=0.5;entryDx=0;entryDy=0;exitX=0;exitY=0.5;exitDx=0;exitDy=0;" edge="1" parent="1" source="WkDUcd401ZdPSmuAqSBH-80" target="WkDUcd401ZdPSmuAqSBH-83">
          <mxGeometry relative="1" as="geometry">
            <mxPoint x="251" y="980" as="targetPoint" />
            <Array as="points">
              <mxPoint x="405" y="925" />
              <mxPoint x="405" y="996" />
            </Array>
            <mxPoint x="561" y="980" as="sourcePoint" />
          </mxGeometry>
        </mxCell>
        <mxCell id="WkDUcd401ZdPSmuAqSBH-90" value="/static_transform_publisher" style="ellipse;whiteSpace=wrap;html=1;strokeWidth=1;" vertex="1" parent="1">
          <mxGeometry x="500" y="1060" width="150" height="50" as="geometry" />
        </mxCell>
        <mxCell id="WkDUcd401ZdPSmuAqSBH-91" style="edgeStyle=orthogonalEdgeStyle;curved=0;rounded=0;orthogonalLoop=1;jettySize=auto;html=1;strokeWidth=2;fillColor=#0050ef;strokeColor=#001DBC;entryX=1;entryY=0.5;entryDx=0;entryDy=0;exitX=0;exitY=0.5;exitDx=0;exitDy=0;" edge="1" parent="1" source="WkDUcd401ZdPSmuAqSBH-90" target="WkDUcd401ZdPSmuAqSBH-83">
          <mxGeometry relative="1" as="geometry">
            <mxPoint x="154" y="1084.52" as="targetPoint" />
            <Array as="points">
              <mxPoint x="290" y="1084" />
              <mxPoint x="290" y="996" />
            </Array>
            <mxPoint x="464" y="1084.52" as="sourcePoint" />
          </mxGeometry>
        </mxCell>
        <mxCell id="WkDUcd401ZdPSmuAqSBH-92" style="edgeStyle=orthogonalEdgeStyle;curved=0;rounded=0;orthogonalLoop=1;jettySize=auto;html=1;strokeWidth=2;fillColor=#e51400;strokeColor=#B20000;entryX=1;entryY=0.5;entryDx=0;entryDy=0;exitX=1;exitY=0.5;exitDx=0;exitDy=0;" edge="1" parent="1" source="WkDUcd401ZdPSmuAqSBH-54" target="WkDUcd401ZdPSmuAqSBH-90">
          <mxGeometry relative="1" as="geometry">
            <Array as="points">
              <mxPoint x="1140" y="810" />
              <mxPoint x="1140" y="1085" />
            </Array>
            <mxPoint x="1050" y="1090" as="sourcePoint" />
            <mxPoint x="700" y="1090" as="targetPoint" />
          </mxGeometry>
        </mxCell>
        <mxCell id="WkDUcd401ZdPSmuAqSBH-93" style="edgeStyle=orthogonalEdgeStyle;curved=0;rounded=0;orthogonalLoop=1;jettySize=auto;html=1;strokeWidth=2;fillColor=#0050ef;strokeColor=#001DBC;entryX=0;entryY=0.5;entryDx=0;entryDy=0;exitX=1;exitY=0;exitDx=0;exitDy=0;" edge="1" parent="1" source="WkDUcd401ZdPSmuAqSBH-90" target="WkDUcd401ZdPSmuAqSBH-54">
          <mxGeometry relative="1" as="geometry">
            <mxPoint x="690" y="950" as="targetPoint" />
            <Array as="points">
              <mxPoint x="628" y="1050" />
              <mxPoint x="810" y="1050" />
              <mxPoint x="810" y="810" />
            </Array>
            <mxPoint x="1000" y="950" as="sourcePoint" />
          </mxGeometry>
        </mxCell>
        <mxCell id="WkDUcd401ZdPSmuAqSBH-94" style="edgeStyle=orthogonalEdgeStyle;curved=0;rounded=0;orthogonalLoop=1;jettySize=auto;html=1;strokeWidth=2;fillColor=#0050ef;strokeColor=#001DBC;entryX=0;entryY=0.5;entryDx=0;entryDy=0;exitX=1;exitY=0;exitDx=0;exitDy=0;" edge="1" parent="1" source="WkDUcd401ZdPSmuAqSBH-80" target="WkDUcd401ZdPSmuAqSBH-54">
          <mxGeometry relative="1" as="geometry">
            <mxPoint x="788" y="719.67" as="targetPoint" />
            <Array as="points">
              <mxPoint x="730" y="907" />
              <mxPoint x="730" y="810" />
            </Array>
            <mxPoint x="1098" y="719.67" as="sourcePoint" />
          </mxGeometry>
        </mxCell>
        <mxCell id="WkDUcd401ZdPSmuAqSBH-95" style="edgeStyle=orthogonalEdgeStyle;curved=0;rounded=0;orthogonalLoop=1;jettySize=auto;html=1;strokeWidth=2;fillColor=#e51400;strokeColor=#B20000;entryX=1;entryY=0.5;entryDx=0;entryDy=0;exitX=1;exitY=0.5;exitDx=0;exitDy=0;" edge="1" parent="1" source="WkDUcd401ZdPSmuAqSBH-54" target="WkDUcd401ZdPSmuAqSBH-80">
          <mxGeometry relative="1" as="geometry">
            <Array as="points">
              <mxPoint x="1140" y="810" />
              <mxPoint x="1140" y="925" />
            </Array>
            <mxPoint x="1060" y="950" as="sourcePoint" />
            <mxPoint x="710" y="950" as="targetPoint" />
          </mxGeometry>
        </mxCell>
        <mxCell id="WkDUcd401ZdPSmuAqSBH-96" style="edgeStyle=orthogonalEdgeStyle;curved=0;rounded=0;orthogonalLoop=1;jettySize=auto;html=1;strokeWidth=2;fillColor=#0050ef;strokeColor=#001DBC;entryX=0;entryY=0.5;entryDx=0;entryDy=0;exitX=1;exitY=1;exitDx=0;exitDy=0;" edge="1" parent="1" source="WkDUcd401ZdPSmuAqSBH-73" target="WkDUcd401ZdPSmuAqSBH-54">
          <mxGeometry relative="1" as="geometry">
            <mxPoint x="788" y="729.05" as="targetPoint" />
            <Array as="points">
              <mxPoint x="603" y="780" />
              <mxPoint x="810" y="780" />
              <mxPoint x="810" y="810" />
            </Array>
            <mxPoint x="1098" y="729.05" as="sourcePoint" />
          </mxGeometry>
        </mxCell>
        <mxCell id="WkDUcd401ZdPSmuAqSBH-97" style="edgeStyle=orthogonalEdgeStyle;curved=0;rounded=0;orthogonalLoop=1;jettySize=auto;html=1;strokeWidth=2;fillColor=#e51400;strokeColor=#B20000;entryX=1;entryY=0.5;entryDx=0;entryDy=0;exitX=1;exitY=0.5;exitDx=0;exitDy=0;" edge="1" parent="1" source="WkDUcd401ZdPSmuAqSBH-54" target="WkDUcd401ZdPSmuAqSBH-6">
          <mxGeometry relative="1" as="geometry">
            <Array as="points">
              <mxPoint x="1140" y="810" />
              <mxPoint x="1140" y="565" />
            </Array>
            <mxPoint x="963" y="560" as="sourcePoint" />
            <mxPoint x="613" y="560" as="targetPoint" />
          </mxGeometry>
        </mxCell>
        <mxCell id="WkDUcd401ZdPSmuAqSBH-98" style="edgeStyle=orthogonalEdgeStyle;curved=0;rounded=0;orthogonalLoop=1;jettySize=auto;html=1;strokeWidth=2;fillColor=#0050ef;strokeColor=#001DBC;entryX=0;entryY=0.5;entryDx=0;entryDy=0;exitX=1;exitY=1;exitDx=0;exitDy=0;" edge="1" parent="1" source="WkDUcd401ZdPSmuAqSBH-6" target="WkDUcd401ZdPSmuAqSBH-54">
          <mxGeometry relative="1" as="geometry">
            <mxPoint x="827" y="670" as="targetPoint" />
            <Array as="points">
              <mxPoint x="560" y="610" />
              <mxPoint x="810" y="610" />
              <mxPoint x="810" y="810" />
            </Array>
            <mxPoint x="1137" y="670" as="sourcePoint" />
          </mxGeometry>
        </mxCell>
        <mxCell id="WkDUcd401ZdPSmuAqSBH-99" style="edgeStyle=orthogonalEdgeStyle;curved=0;rounded=0;orthogonalLoop=1;jettySize=auto;html=1;strokeWidth=2;fillColor=#e51400;strokeColor=#B20000;entryX=1;entryY=0.5;entryDx=0;entryDy=0;exitX=1;exitY=0.5;exitDx=0;exitDy=0;" edge="1" parent="1" source="WkDUcd401ZdPSmuAqSBH-54" target="5PvRvrnBs6BkQdJpTkBt-2">
          <mxGeometry relative="1" as="geometry">
            <Array as="points">
              <mxPoint x="1140" y="810" />
              <mxPoint x="1140" y="540" />
              <mxPoint x="791" y="540" />
              <mxPoint x="791" y="415" />
            </Array>
            <mxPoint x="950.5" y="414.52" as="sourcePoint" />
            <mxPoint x="600.5" y="414.52" as="targetPoint" />
          </mxGeometry>
        </mxCell>
        <mxCell id="WkDUcd401ZdPSmuAqSBH-100" style="edgeStyle=orthogonalEdgeStyle;curved=0;rounded=0;orthogonalLoop=1;jettySize=auto;html=1;strokeWidth=2;fillColor=#0050ef;strokeColor=#001DBC;entryX=0;entryY=0.5;entryDx=0;entryDy=0;exitX=1;exitY=1;exitDx=0;exitDy=0;" edge="1" parent="1" source="5PvRvrnBs6BkQdJpTkBt-2" target="WkDUcd401ZdPSmuAqSBH-54">
          <mxGeometry relative="1" as="geometry">
            <mxPoint x="890" y="744.6" as="targetPoint" />
            <Array as="points">
              <mxPoint x="559" y="490" />
              <mxPoint x="730" y="490" />
              <mxPoint x="730" y="610" />
              <mxPoint x="810" y="610" />
              <mxPoint x="810" y="810" />
            </Array>
            <mxPoint x="1200" y="744.6" as="sourcePoint" />
          </mxGeometry>
        </mxCell>
        <mxCell id="WkDUcd401ZdPSmuAqSBH-101" style="edgeStyle=orthogonalEdgeStyle;curved=0;rounded=0;orthogonalLoop=1;jettySize=auto;html=1;strokeWidth=2;fillColor=#e51400;strokeColor=#B20000;entryX=1;entryY=0.5;entryDx=0;entryDy=0;exitX=1;exitY=0.5;exitDx=0;exitDy=0;" edge="1" parent="1" source="WkDUcd401ZdPSmuAqSBH-54" target="WkDUcd401ZdPSmuAqSBH-31">
          <mxGeometry relative="1" as="geometry">
            <Array as="points">
              <mxPoint x="1140" y="810" />
              <mxPoint x="1140" y="180" />
            </Array>
            <mxPoint x="1090" y="750" as="sourcePoint" />
            <mxPoint x="625" y="190" as="targetPoint" />
          </mxGeometry>
        </mxCell>
        <mxCell id="WkDUcd401ZdPSmuAqSBH-103" style="edgeStyle=orthogonalEdgeStyle;curved=0;rounded=0;orthogonalLoop=1;jettySize=auto;html=1;strokeWidth=2;fillColor=#e51400;strokeColor=#B20000;exitX=0.5;exitY=1;exitDx=0;exitDy=0;entryX=0.5;entryY=1;entryDx=0;entryDy=0;" edge="1" parent="1" source="WkDUcd401ZdPSmuAqSBH-52" target="5PvRvrnBs6BkQdJpTkBt-2">
          <mxGeometry relative="1" as="geometry">
            <Array as="points">
              <mxPoint x="1423" y="460" />
              <mxPoint x="507" y="460" />
            </Array>
            <mxPoint x="1520" y="435" as="sourcePoint" />
            <mxPoint x="1170" y="435" as="targetPoint" />
          </mxGeometry>
        </mxCell>
        <mxCell id="WkDUcd401ZdPSmuAqSBH-104" style="edgeStyle=orthogonalEdgeStyle;curved=0;rounded=0;orthogonalLoop=1;jettySize=auto;html=1;strokeWidth=2;fillColor=#e51400;strokeColor=#B20000;exitX=0.5;exitY=1;exitDx=0;exitDy=0;entryX=0.5;entryY=1;entryDx=0;entryDy=0;" edge="1" parent="1" source="WkDUcd401ZdPSmuAqSBH-52" target="WkDUcd401ZdPSmuAqSBH-80">
          <mxGeometry relative="1" as="geometry">
            <Array as="points">
              <mxPoint x="1423" y="980" />
              <mxPoint x="550" y="980" />
            </Array>
            <mxPoint x="1353.5" y="630" as="sourcePoint" />
            <mxPoint x="1003.5" y="630" as="targetPoint" />
          </mxGeometry>
        </mxCell>
        <mxCell id="WkDUcd401ZdPSmuAqSBH-105" style="edgeStyle=orthogonalEdgeStyle;curved=0;rounded=0;orthogonalLoop=1;jettySize=auto;html=1;strokeWidth=2;fillColor=#e51400;strokeColor=#B20000;exitX=0.5;exitY=1;exitDx=0;exitDy=0;entryX=0.5;entryY=0;entryDx=0;entryDy=0;" edge="1" parent="1" source="WkDUcd401ZdPSmuAqSBH-52" target="WkDUcd401ZdPSmuAqSBH-73">
          <mxGeometry relative="1" as="geometry">
            <Array as="points">
              <mxPoint x="1423" y="700" />
              <mxPoint x="550" y="700" />
            </Array>
            <mxPoint x="1380" y="679.47" as="sourcePoint" />
            <mxPoint x="1030" y="679.47" as="targetPoint" />
          </mxGeometry>
        </mxCell>
        <mxCell id="WkDUcd401ZdPSmuAqSBH-106" style="edgeStyle=orthogonalEdgeStyle;curved=0;rounded=0;orthogonalLoop=1;jettySize=auto;html=1;strokeWidth=2;fillColor=#e51400;strokeColor=#B20000;exitX=0.5;exitY=1;exitDx=0;exitDy=0;entryX=0.5;entryY=0;entryDx=0;entryDy=0;" edge="1" parent="1" source="WkDUcd401ZdPSmuAqSBH-52" target="WkDUcd401ZdPSmuAqSBH-6">
          <mxGeometry relative="1" as="geometry">
            <Array as="points">
              <mxPoint x="1423" y="520" />
              <mxPoint x="507" y="520" />
            </Array>
            <mxPoint x="1510" y="564.47" as="sourcePoint" />
            <mxPoint x="1160" y="564.47" as="targetPoint" />
          </mxGeometry>
        </mxCell>
      </root>
    </mxGraphModel>
  </diagram>
</mxfile>
